<svg width="196" height="129" viewBox="0 0 196 129" fill="none" xmlns="http://www.w3.org/2000/svg">
<g clip-path="url(#clip0_223_59)">
<path d="M45.1719 0H13.8281C6.19106 0 0 6.19106 0 13.8281V45.1719C0 52.8089 6.19106 59 13.8281 59H45.1719C52.8089 59 59 52.8089 59 45.1719V13.8281C59 6.19106 52.8089 0 45.1719 0Z" fill="#5865F2"/>
<mask id="mask0_223_59" style="mask-type:luminance" maskUnits="userSpaceOnUse" x="6" y="11" width="47" height="37">
<path d="M52.5469 11.7539H6.45312V47.4604H52.5469V11.7539Z" fill="white"/>
</mask>
<g mask="url(#mask0_223_59)">
<path d="M45.4733 14.9336C42.5355 13.5856 39.3853 12.5925 36.0912 12.0236C36.0313 12.0127 35.9713 12.0401 35.9405 12.095C35.5353 12.8156 35.0863 13.7557 34.7722 14.4946C31.2292 13.9642 27.7046 13.9642 24.2345 14.4946C23.9201 13.7393 23.455 12.8156 23.048 12.095C23.0171 12.0419 22.9572 12.0145 22.8972 12.0236C19.605 12.5906 16.4546 13.5838 13.5149 14.9336C13.4895 14.9446 13.4677 14.9629 13.4532 14.9867C7.47753 23.9142 5.84056 32.6222 6.64361 41.2224C6.64725 41.2646 6.67085 41.3047 6.70357 41.3302C10.6461 44.2256 14.4652 45.9834 18.2133 47.1484C18.2733 47.1666 18.3369 47.1447 18.375 47.0954C19.2617 45.8845 20.052 44.608 20.7296 43.2655C20.7697 43.1867 20.7315 43.0936 20.6497 43.0624C19.3961 42.5868 18.2024 42.0071 17.0542 41.3487C16.9634 41.2957 16.9561 41.1657 17.0396 41.1035C17.2813 40.9223 17.523 40.734 17.7537 40.5439C17.7954 40.5091 17.8536 40.5017 17.9027 40.5236C25.4463 43.9677 33.6129 43.9677 41.0675 40.5236C41.1165 40.4999 41.1749 40.5072 41.2184 40.542C41.4491 40.7322 41.6906 40.9223 41.9342 41.1035C42.0177 41.1657 42.0124 41.2957 41.9216 41.3487C40.7731 42.0198 39.5795 42.5868 38.3242 43.0606C38.2424 43.0917 38.206 43.1867 38.2461 43.2655C38.9382 44.6061 39.7284 45.8827 40.5987 47.0936C40.6351 47.1447 40.7005 47.1666 40.7605 47.1484C44.5268 45.9834 48.3459 44.2256 52.2885 41.3302C52.3229 41.3047 52.3448 41.2662 52.3484 41.2242C53.3095 31.2816 50.7386 22.6448 45.5332 14.9885C45.5206 14.9629 45.4989 14.9446 45.4733 14.9336ZM21.8562 35.9859C19.5851 35.9859 17.7137 33.9008 17.7137 31.3401C17.7137 28.7794 19.5488 26.6943 21.8562 26.6943C24.1817 26.6943 26.0349 28.7978 25.9985 31.3401C25.9985 33.9008 24.1635 35.9859 21.8562 35.9859ZM37.1723 35.9859C34.901 35.9859 33.0299 33.9008 33.0299 31.3401C33.0299 28.7794 34.8648 26.6943 37.1723 26.6943C39.4977 26.6943 41.3509 28.7978 41.3148 31.3401C41.3148 33.9008 39.4977 35.9859 37.1723 35.9859Z" fill="white"/>
</g>
</g>
<g clip-path="url(#clip1_223_59)">
<path d="M113.422 0.5H82.5986C75.0883 0.5 69 6.58613 69 14.0938V44.9062C69 52.4139 75.0883 58.5 82.5986 58.5H113.422C120.932 58.5 127.021 52.4139 127.021 44.9062V14.0938C127.021 6.58613 120.932 0.5 113.422 0.5Z" fill="#242938"/>
<path d="M88.2067 25.8662C88.2067 26.4176 88.2664 26.8646 88.3708 27.1927C88.49 27.5205 88.6391 27.8783 88.8479 28.2659C88.9224 28.3851 88.9523 28.5043 88.9523 28.6087C88.9523 28.7578 88.8628 28.9069 88.669 29.0557L87.7296 29.6819C87.5954 29.7712 87.4612 29.8161 87.3419 29.8161C87.1928 29.8161 87.0437 29.7415 86.8946 29.6074C86.6858 29.3838 86.5069 29.1452 86.3578 28.9069C86.2087 28.6533 86.0596 28.3701 85.8956 28.0273C84.7325 29.3987 83.2713 30.0843 81.5118 30.0843C80.2593 30.0843 79.2603 29.7266 78.5297 29.0111C77.799 28.2956 77.4263 27.3418 77.4263 26.1494C77.4263 24.8822 77.8736 23.8538 78.7831 23.0787C79.6927 22.3036 80.9005 21.9161 82.4363 21.9161C82.9432 21.9161 83.4651 21.9608 84.0168 22.0354C84.5685 22.1099 85.1351 22.2291 85.7316 22.3633V21.2752C85.7316 20.1424 85.493 19.3524 85.0308 18.8903C84.5536 18.4283 83.7484 18.2047 82.6003 18.2047C82.0784 18.2047 81.5416 18.2643 80.9899 18.3984C80.4382 18.5326 79.9014 18.6965 79.3796 18.9052C79.141 19.0096 78.9621 19.0692 78.8577 19.099C78.7533 19.1288 78.6788 19.1437 78.6191 19.1437C78.4104 19.1437 78.306 18.9947 78.306 18.6816V17.9513C78.306 17.7128 78.3358 17.5339 78.4104 17.4296C78.4849 17.3253 78.6191 17.2209 78.8279 17.1166C79.3497 16.8483 79.976 16.6247 80.7066 16.4458C81.4372 16.2521 82.2126 16.1626 83.0327 16.1626C84.8071 16.1626 86.1043 16.5651 86.9393 17.37C87.7594 18.1749 88.1769 19.3971 88.1769 21.0367V25.8662H88.2067ZM82.153 28.1318C82.645 28.1318 83.152 28.0423 83.6888 27.8633C84.2256 27.6846 84.7027 27.3565 85.1053 26.9095C85.3439 26.6263 85.5228 26.3132 85.6123 25.9554C85.7017 25.5977 85.7614 25.1654 85.7614 24.6588V24.0326C85.329 23.9284 84.8667 23.8389 84.3896 23.7793C83.9124 23.7197 83.4502 23.6898 82.988 23.6898C81.9889 23.6898 81.2583 23.8837 80.7663 24.2861C80.2742 24.6885 80.0356 25.2549 80.0356 26.0003C80.0356 26.7008 80.2146 27.2224 80.5873 27.5801C80.9452 27.9528 81.4671 28.1318 82.153 28.1318ZM94.1263 29.7415C93.8579 29.7415 93.6789 29.6967 93.5597 29.5924C93.4405 29.5029 93.336 29.2943 93.2467 29.0111L89.7426 17.4892C89.6531 17.1911 89.6084 16.9973 89.6084 16.893C89.6084 16.6545 89.7276 16.5203 89.9662 16.5203H91.4275C91.7107 16.5203 91.9047 16.5651 92.009 16.6694C92.1282 16.7589 92.2177 16.9675 92.3072 17.2507L94.8121 27.1181L97.1384 17.2507C97.2129 16.9526 97.3022 16.7589 97.4217 16.6694C97.5409 16.58 97.7496 16.5203 98.018 16.5203H99.2108C99.4941 16.5203 99.6881 16.5651 99.8073 16.6694C99.9265 16.7589 100.031 16.9675 100.091 17.2507L102.447 27.2373L105.026 17.2507C105.116 16.9526 105.22 16.7589 105.324 16.6694C105.443 16.58 105.638 16.5203 105.906 16.5203H107.292C107.531 16.5203 107.665 16.6396 107.665 16.893C107.665 16.9675 107.65 17.0421 107.635 17.1315C107.621 17.2209 107.591 17.3401 107.531 17.5041L103.938 29.026C103.848 29.3242 103.744 29.5179 103.624 29.6074C103.505 29.6967 103.311 29.7565 103.058 29.7565H101.775C101.492 29.7565 101.298 29.7116 101.179 29.6074C101.06 29.5029 100.955 29.3092 100.896 29.0111L98.5846 19.3971L96.2885 28.9961C96.2139 29.2943 96.1244 29.488 96.0051 29.5924C95.8857 29.6967 95.677 29.7415 95.4086 29.7415H94.1263ZM113.287 30.1439C112.511 30.1439 111.736 30.0544 110.99 29.8756C110.245 29.6967 109.663 29.5029 109.276 29.2793C109.037 29.1452 108.873 28.9961 108.813 28.862C108.754 28.7279 108.724 28.5788 108.724 28.4447V27.6846C108.724 27.3714 108.843 27.2224 109.067 27.2224C109.156 27.2224 109.246 27.2373 109.335 27.2672C109.425 27.2969 109.559 27.3565 109.708 27.4163C110.215 27.6397 110.767 27.8187 111.348 27.9379C111.945 28.0573 112.526 28.1168 113.123 28.1168C114.062 28.1168 114.793 27.9528 115.3 27.625C115.807 27.2969 116.075 26.82 116.075 26.209C116.075 25.7916 115.941 25.4486 115.672 25.1654C115.404 24.8822 114.897 24.6289 114.166 24.3903L112.004 23.7197C110.916 23.3769 110.111 22.8701 109.618 22.1993C109.126 21.5435 108.873 20.8131 108.873 20.038C108.873 19.412 109.007 18.8605 109.276 18.3835C109.544 17.9065 109.902 17.4892 110.349 17.1613C110.797 16.8185 111.304 16.5651 111.9 16.3862C112.496 16.2073 113.123 16.1328 113.779 16.1328C114.107 16.1328 114.45 16.1477 114.778 16.1924C115.121 16.2371 115.434 16.2968 115.747 16.3564C116.045 16.4309 116.329 16.5054 116.597 16.5949C116.865 16.6843 117.074 16.7737 117.223 16.8632C117.432 16.9824 117.581 17.1017 117.67 17.2358C117.76 17.355 117.805 17.519 117.805 17.7277V18.4283C117.805 18.7413 117.685 18.9052 117.462 18.9052C117.342 18.9052 117.149 18.8456 116.895 18.7264C116.045 18.3388 115.091 18.145 114.032 18.145C113.182 18.145 112.511 18.2792 112.049 18.5624C111.587 18.8456 111.348 19.2779 111.348 19.889C111.348 20.3063 111.497 20.6641 111.796 20.9473C112.094 21.2305 112.646 21.5137 113.436 21.7671L115.553 22.4378C116.627 22.7806 117.402 23.2575 117.864 23.8688C118.326 24.4798 118.55 25.1804 118.55 25.9554C118.55 26.5964 118.416 27.1777 118.163 27.6846C117.894 28.1914 117.536 28.6384 117.074 28.9961C116.612 29.3688 116.06 29.6371 115.419 29.831C114.748 30.0397 114.047 30.1439 113.287 30.1439Z" fill="white"/>
<path fill-rule="evenodd" clip-rule="evenodd" d="M116.105 37.3879C111.199 41.01 104.072 42.9328 97.9436 42.9328C89.3551 42.9328 81.6164 39.7577 75.7714 34.4813C75.3091 34.064 75.7266 33.4976 76.2783 33.8254C82.6005 37.4921 90.3988 39.7131 98.4656 39.7131C103.908 39.7131 109.887 38.5803 115.389 36.2551C116.209 35.8824 116.91 36.7916 116.105 37.3879Z" fill="#FF9900"/>
<path fill-rule="evenodd" clip-rule="evenodd" d="M118.148 35.0629C117.521 34.2579 114.003 34.6753 112.407 34.869C111.93 34.9288 111.855 34.5112 112.288 34.1983C115.091 32.2309 119.698 32.7973 120.235 33.453C120.772 34.1238 120.086 38.7296 117.462 40.9356C117.059 41.2784 116.672 41.0994 116.85 40.6524C117.447 39.1768 118.774 35.8527 118.148 35.0629Z" fill="#FF9900"/>
</g>
<g clip-path="url(#clip2_223_59)">
<path d="M181.443 0.5H150.619C143.109 0.5 137.021 6.58613 137.021 14.0938V44.9062C137.021 52.4139 143.109 58.5 150.619 58.5H181.443C188.953 58.5 195.041 52.4139 195.041 44.9062V14.0938C195.041 6.58613 188.953 0.5 181.443 0.5Z" fill="#5865F2"/>
<path fill-rule="evenodd" clip-rule="evenodd" d="M170.913 51.8252C177.505 51.82 184.107 51.8599 190.708 51.8252L192.572 41.5833H139.287L141.396 51.8252C151.234 51.7609 161.079 51.8327 170.913 51.8252Z" fill="#98A0F7"/>
<path fill-rule="evenodd" clip-rule="evenodd" d="M185.911 41.977H145.948V28.5779C145.948 16.8249 154.894 7.29688 165.93 7.29688C176.965 7.29688 185.911 16.8249 185.911 28.5779V41.977Z" fill="#98A0F7"/>
<path d="M144.898 34.7615V15.3196M187.082 34.7615V15.3196" stroke="#202225" stroke-width="0.631875" stroke-linecap="round" stroke-linejoin="round"/>
<path fill-rule="evenodd" clip-rule="evenodd" d="M188.192 27.2734H143.788C142.971 27.2734 142.308 29.5674 142.308 32.3967C142.308 35.2269 142.971 37.52 143.788 37.52H188.192C189.01 37.52 189.672 35.2269 189.672 32.3967C189.672 29.5674 189.01 27.2734 188.192 27.2734Z" fill="white"/>
<path fill-rule="evenodd" clip-rule="evenodd" d="M170.049 25.8192C168.059 28.7858 163.921 28.7858 161.932 25.8192C160.995 24.4235 159.484 23.5952 157.873 23.5952H153.396C151.564 23.5952 150.079 25.1775 150.079 27.1289V39.7527H181.902V27.1289C181.902 25.1775 180.417 23.5952 178.584 23.5952H174.108C172.496 23.5952 170.985 24.4235 170.049 25.8192Z" fill="white"/>
<path fill-rule="evenodd" clip-rule="evenodd" d="M168.21 22.5774C168.21 21.272 167.216 20.2126 165.99 20.2126C164.764 20.2126 163.77 21.272 163.77 22.5774C163.77 23.8828 164.764 24.9422 165.99 24.9422C167.216 24.9422 168.21 23.8828 168.21 22.5774Z" fill="white"/>
<path fill-rule="evenodd" clip-rule="evenodd" d="M158.96 32.2656C158.96 30.7416 157.8 29.5061 156.369 29.5061C154.939 29.5061 153.779 30.7416 153.779 32.2656C153.779 33.7888 154.939 35.0243 156.369 35.0243C157.8 35.0243 158.96 33.7888 158.96 32.2656ZM178.201 32.2656C178.201 30.7416 177.042 29.5061 175.611 29.5061C174.18 29.5061 173.021 30.7416 173.021 32.2656C173.021 33.7888 174.18 35.0243 175.611 35.0243C177.042 35.0243 178.201 33.7888 178.201 32.2656Z" fill="black"/>
<path fill-rule="evenodd" clip-rule="evenodd" d="M183.011 47.9764C183.011 47.3241 182.515 46.7939 181.902 46.7939C181.288 46.7939 180.792 47.3241 180.792 47.9764C180.792 48.6296 181.288 49.1588 181.902 49.1588C182.515 49.1588 183.011 48.6296 183.011 47.9764ZM179.312 47.9764C179.312 47.3241 178.815 46.7939 178.201 46.7939C177.588 46.7939 177.091 47.3241 177.091 47.9764C177.091 48.6296 177.588 49.1588 178.201 49.1588C178.815 49.1588 179.312 48.6296 179.312 47.9764ZM175.611 47.9764C175.611 47.3241 175.114 46.7939 174.501 46.7939C173.888 46.7939 173.391 47.3241 173.391 47.9764C173.391 48.6296 173.888 49.1588 174.501 49.1588C175.114 49.1588 175.611 48.6296 175.611 47.9764Z" fill="white"/>
</g>
<g clip-path="url(#clip3_223_59)">
<path d="M44.4221 70.5H13.5986C6.08831 70.5 0 76.5861 0 84.0938V114.906C0 122.414 6.08831 128.5 13.5986 128.5H44.4221C51.9325 128.5 58.0208 122.414 58.0208 114.906V84.0938C58.0208 76.5861 51.9325 70.5 44.4221 70.5Z" fill="#242938"/>
<g clip-path="url(#clip4_223_59)">
<mask id="mask1_223_59" style="mask-type:luminance" maskUnits="userSpaceOnUse" x="10" y="80" width="38" height="39">
<path d="M48 80.5H10V118.5H48V80.5Z" fill="white"/>
</mask>
<g mask="url(#mask1_223_59)">
<path d="M45.2759 96.0526C46.138 93.4651 45.8411 90.6305 44.4625 88.2769C42.3891 84.6669 38.221 82.8096 34.1502 83.6836C32.3393 81.6435 29.7375 80.4833 27.0098 80.4999C22.8488 80.4904 19.1568 83.1694 17.8767 87.1286C15.2036 87.676 12.8963 89.3492 11.5461 91.7206C9.45733 95.3211 9.93352 99.8597 12.7241 102.947C11.862 105.535 12.1589 108.369 13.5376 110.723C15.611 114.333 19.7791 116.19 23.8498 115.316C25.6596 117.356 28.2626 118.517 30.9903 118.499C35.1536 118.509 38.8468 115.828 40.1269 111.865C42.8 111.318 45.1073 109.645 46.4575 107.273C48.5439 103.673 48.0665 99.1377 45.2771 96.0502L45.2759 96.0526ZM30.9926 116.016C29.3266 116.018 27.7128 115.435 26.4338 114.367C26.492 114.337 26.593 114.281 26.6583 114.24L34.225 109.87C34.6121 109.651 34.8496 109.239 34.8473 108.793V98.126L38.0452 99.9726C38.0796 99.9892 38.1022 100.022 38.107 100.06V108.894C38.1022 112.822 34.9209 116.007 30.9926 116.016ZM15.6929 109.481C14.8581 108.039 14.5576 106.349 14.8438 104.709C14.8996 104.743 14.9982 104.803 15.0683 104.844L22.635 109.214C23.0186 109.438 23.4936 109.438 23.8783 109.214L33.1159 103.879V107.573C33.1183 107.611 33.1005 107.647 33.0708 107.671L25.4221 112.087C22.0151 114.049 17.6641 112.883 15.6941 109.481H15.6929ZM13.7015 92.9639C14.5327 91.5199 15.8449 90.4156 17.4076 89.842C17.4076 89.9073 17.4041 90.0225 17.4041 90.1032V98.8444C17.4017 99.2886 17.6392 99.7006 18.0251 99.9203L27.2627 105.253L24.0648 107.1C24.0327 107.121 23.9923 107.125 23.9567 107.109L16.3068 102.69C12.907 100.721 11.7409 96.3709 13.7003 92.9651L13.7015 92.9639ZM39.9761 99.0784L30.7385 93.7441L33.9365 91.8987C33.9685 91.8774 34.0089 91.8738 34.0445 91.8892L41.6944 96.3056C45.1001 98.2732 46.2675 102.63 44.2998 106.036C43.4673 107.478 42.1563 108.582 40.5948 109.157V100.154C40.5983 99.7101 40.362 99.2992 39.9773 99.0784H39.9761ZM43.1586 94.288C43.1028 94.2536 43.0042 94.1942 42.9341 94.1538L35.3674 89.7838C34.9838 89.5594 34.5088 89.5594 34.1241 89.7838L24.8865 95.1181V91.4249C24.8841 91.3869 24.902 91.3501 24.9316 91.3264L32.5803 86.9136C35.9873 84.9483 40.343 86.118 42.3071 89.5261C43.1372 90.9654 43.4376 92.6504 43.1562 94.288H43.1586ZM23.148 100.87L19.9489 99.0237C19.9145 99.0071 19.8919 98.9739 19.8871 98.9359V90.1021C19.8895 86.1691 23.0803 82.9818 27.0133 82.9842C28.677 82.9842 30.2873 83.5684 31.5662 84.6324C31.508 84.6633 31.4083 84.7191 31.3418 84.7595L23.775 89.1295C23.3879 89.3492 23.1504 89.7601 23.1528 90.2054L23.148 100.868V100.87ZM24.8853 97.1249L29 94.7487L33.1147 97.1237V101.875L29 104.25L24.8853 101.875V97.1249Z" fill="white"/>
</g>
</g>
</g>
<g clip-path="url(#clip5_223_59)">
<path d="M112.443 70.5H81.6196C74.1093 70.5 68.021 76.5861 68.021 84.0938V114.906C68.021 122.414 74.1093 128.5 81.6196 128.5H112.443C119.953 128.5 126.042 122.414 126.042 114.906V84.0938C126.042 76.5861 119.953 70.5 112.443 70.5Z" fill="#007ACC"/>
<path d="M80.8514 99.6924L80.833 102.068H84.609H88.3849V112.793V123.518H91.0558H93.7266V112.793V102.068H97.5024H101.278V99.7384C101.278 98.4495 101.251 97.3724 101.214 97.3447C101.186 97.308 96.5907 97.2895 91.0188 97.2988L80.8791 97.3264L80.8514 99.6924Z" fill="white"/>
<path d="M114.838 97.259C116.311 97.6274 117.435 98.281 118.466 99.3488C119.001 99.9197 119.793 100.96 119.857 101.209C119.875 101.282 117.352 102.976 115.823 103.924C115.768 103.961 115.547 103.722 115.298 103.354C114.552 102.267 113.769 101.798 112.572 101.715C110.813 101.595 109.68 102.516 109.69 104.053C109.69 104.504 109.754 104.771 109.938 105.14C110.325 105.941 111.043 106.419 113.3 107.395C117.453 109.181 119.231 110.36 120.336 112.035C121.57 113.904 121.846 116.887 121.008 119.106C120.087 121.518 117.803 123.156 114.589 123.7C113.595 123.875 111.237 123.847 110.169 123.654C107.838 123.239 105.628 122.089 104.265 120.579C103.731 119.99 102.69 118.452 102.755 118.342C102.782 118.305 103.022 118.158 103.289 118.001C103.547 117.854 104.523 117.292 105.444 116.758L107.111 115.791L107.461 116.307C107.949 117.053 109.017 118.075 109.662 118.415C111.513 119.391 114.055 119.253 115.307 118.13C115.842 117.642 116.063 117.136 116.063 116.39C116.063 115.718 115.98 115.423 115.63 114.917C115.179 114.272 114.258 113.729 111.642 112.597C108.649 111.308 107.36 110.507 106.181 109.236C105.499 108.5 104.854 107.322 104.587 106.336C104.366 105.517 104.311 103.464 104.486 102.636C105.103 99.7448 107.286 97.7286 110.436 97.1301C111.458 96.9368 113.834 97.0104 114.838 97.259Z" fill="white"/>
</g>
<g clip-path="url(#clip6_223_59)">
<path d="M181.213 70H149.87C142.233 70 136.042 76.1911 136.042 83.8281V115.172C136.042 122.809 142.233 129 149.87 129H181.213C188.85 129 195.042 122.809 195.042 115.172V83.8281C195.042 76.1911 188.85 70 181.213 70Z" fill="#262626"/>
<path d="M183.543 92.7658H172.3V81.5234H183.543V92.7658Z" fill="#F9AD00"/>
<path d="M171.174 92.7658H159.932V81.5234H171.174V92.7658Z" fill="#F9AD00"/>
<path d="M158.807 92.7658H147.565V81.5234H158.807V92.7658Z" fill="#F9AD00"/>
<path d="M183.543 105.132H172.3V93.8901H183.543V105.132Z" fill="#F9AD00"/>
<path d="M171.174 105.132H159.932V93.8901H171.174V105.132Z" fill="#4E4E4E"/>
<path d="M171.174 117.499H159.932V106.257H171.174V117.499Z" fill="#4E4E4E"/>
<path d="M183.543 117.499H172.3V106.257H183.543V117.499Z" fill="#4E4E4E"/>
<path d="M158.807 117.499H147.565V106.257H158.807V117.499Z" fill="#4E4E4E"/>
</g>
<defs>
<clipPath id="clip0_223_59">
<rect width="59" height="59" fill="white"/>
</clipPath>
<clipPath id="clip1_223_59">
<rect width="58.0208" height="58" fill="white" transform="translate(69 0.5)"/>
</clipPath>
<clipPath id="clip2_223_59">
<rect width="58.0208" height="58" fill="white" transform="translate(137.021 0.5)"/>
</clipPath>
<clipPath id="clip3_223_59">
<rect width="58.0208" height="58" fill="white" transform="translate(0 70.5)"/>
</clipPath>
<clipPath id="clip4_223_59">
<rect width="38" height="38" fill="white" transform="translate(10 80.5)"/>
</clipPath>
<clipPath id="clip5_223_59">
<rect width="58.0208" height="58" fill="white" transform="translate(68.021 70.5)"/>
</clipPath>
<clipPath id="clip6_223_59">
<rect width="59" height="59" fill="white" transform="translate(136.042 70)"/>
</clipPath>
</defs>
</svg>
